<svg width="29" height="29" viewBox="0 0 29 29" fill="none" xmlns="http://www.w3.org/2000/svg">
<path fill-rule="evenodd" clip-rule="evenodd" d="M9.6582 0.0878906H20.1582C24.99 0.0878906 28.9082 4.00614 28.9082 8.83789V19.3379C28.9082 24.1696 24.99 28.0879 20.1582 28.0879H9.6582C4.82645 28.0879 0.908203 24.1696 0.908203 19.3379V8.83789C0.908203 4.00614 4.82645 0.0878906 9.6582 0.0878906ZM20.1578 25.4629C23.5353 25.4629 26.2828 22.7154 26.2828 19.3379V8.83789C26.2828 5.46039 23.5353 2.71289 20.1578 2.71289H9.65779C6.28029 2.71289 3.53279 5.46039 3.53279 8.83789V19.3379C3.53279 22.7154 6.28029 25.4629 9.65779 25.4629H20.1578Z" fill="white"/>
<path fill-rule="evenodd" clip-rule="evenodd" d="M7.90869 14.0898C7.90869 10.2241 11.0429 7.08984 14.9087 7.08984C18.7744 7.08984 21.9087 10.2241 21.9087 14.0898C21.9087 17.9556 18.7744 21.0898 14.9087 21.0898C11.0429 21.0898 7.90869 17.9556 7.90869 14.0898ZM10.5333 14.0898C10.5333 16.5013 12.4968 18.4648 14.9083 18.4648C17.3198 18.4648 19.2833 16.5013 19.2833 14.0898C19.2833 11.6766 17.3198 9.71484 14.9083 9.71484C12.4968 9.71484 10.5333 11.6766 10.5333 14.0898Z" fill="white"/>
<circle cx="22.4328" cy="6.56166" r="0.93275" fill="white"/>
</svg>
