<svg width="29" height="29" viewBox="0 0 29 29" fill="none" xmlns="http://www.w3.org/2000/svg">
<path d="M28.9082 3.40266C27.867 3.96481 26.7575 4.33743 25.6007 4.51835C26.7907 3.64389 27.699 2.26974 28.126 0.613429C27.0165 1.42758 25.7915 2.00266 24.486 2.32358C23.4325 0.942968 21.931 0.0878906 20.293 0.0878906C17.115 0.0878906 14.5565 3.26266 14.5565 7.15466C14.5565 7.71466 14.595 8.25312 14.6895 8.76574C9.9172 8.47927 5.69445 5.6642 2.8577 1.37589C2.36245 2.43343 2.07195 3.64389 2.07195 4.94697C2.07195 7.39374 3.0957 9.56266 4.6217 10.8184C3.69945 10.7968 2.7947 10.4673 2.0282 9.9482C2.0282 9.96974 2.0282 9.99774 2.0282 10.0257C2.0282 13.459 4.01795 16.3107 6.6272 16.9676C6.15995 17.1248 5.6507 17.2002 5.1222 17.2002C4.7547 17.2002 4.3837 17.1744 4.03545 17.0796C4.7792 19.8774 6.8897 21.9344 9.3992 22.0011C7.4462 23.8814 4.96645 25.0144 2.28195 25.0144C1.8112 25.0144 1.3597 24.9885 0.908203 24.9174C3.45095 26.9356 6.46445 28.0879 9.7142 28.0879C20.2772 28.0879 26.0522 17.3187 26.0522 7.98389C26.0522 7.67158 26.0435 7.37004 26.0312 7.07066C27.1705 6.07558 28.1277 4.83281 28.9082 3.40266Z" fill="white"/>
</svg>
